<?xml version="1.0" encoding="UTF-8"?> <svg xmlns="http://www.w3.org/2000/svg" xmlns:xlink="http://www.w3.org/1999/xlink" version="1.1" id="Capa_1" x="0px" y="0px" viewBox="0 0 476.7 311" style="enable-background:new 0 0 476.7 311;" xml:space="preserve"> <style type="text/css"> .st0{fill:#F3F3F3;} .st1{clip-path:url(#SVGID_2_);} .st2{fill:url(#SVGID_3_);} .st3{clip-path:url(#SVGID_5_);} .st4{fill:url(#SVGID_6_);} .st5{clip-path:url(#SVGID_8_);} .st6{fill:url(#SVGID_9_);} .st7{fill:#373A36;} .st8{fill:#41AEBA;} .st9{fill:#289499;} .st10{fill:none;stroke:#000000;stroke-width:0.25;stroke-miterlimit:10;} </style> <g> <path class="st7" d="M98,228.6c-23.8,0-41.9-6.6-54.3-19.8c-12.4-13.2-18.7-32-18.7-56.3c0-12.1,1.9-22.9,5.7-32.4 c3.8-9.5,9-17.5,15.6-24.1C53,89.4,60.8,84.5,70,81.1C79.1,77.7,89,76,99.7,76c6.2,0,11.8,0.5,16.9,1.4c5.1,0.9,9.5,2,13.3,3.2 c3.8,1.2,7,2.4,9.5,3.7c0.3,0.1,0.6,0.3,0.9,0.4c2.7,1.4,3.9,4.5,2.9,7.3l-5.6,15.6c-1.1,3.2-4.8,4.8-7.9,3.5 c-3.1-1.3-6.4-2.4-10-3.4c-6-1.7-12.8-2.5-20.4-2.5c-5.1,0-10,0.8-14.9,2.5c-4.9,1.7-9.1,4.4-12.9,8.1c-3.7,3.7-6.7,8.5-9,14.5 c-2.3,5.9-3.4,13.1-3.4,21.5c0,6.8,0.7,13,2.2,18.9c1.5,5.8,3.9,10.9,7.2,15.1c3.3,4.2,7.6,7.6,13,10c5.3,2.5,11.8,3.7,19.4,3.7 c4.8,0,9.1-0.3,12.9-0.8c3.8-0.6,7.2-1.2,10.1-2c3-0.8,5.6-1.7,7.8-2.6l0.2-0.1c3.2-1.4,6.9,0.2,8,3.5l5.3,15.4 c1,2.9-0.4,6.1-3.2,7.4c-4,1.8-9,3.5-14.8,5.1C118.9,227.5,109.1,228.6,98,228.6z"></path> <path class="st7" d="M168.1,219.7V85.4c0-3.3,2.7-6,6-6h86c3.3,0,6,2.7,6,6v15.7c0,3.3-2.7,6-6,6h-59v30.6h51.9c3.3,0,6,2.7,6,6 v15.7c0,3.3-2.7,6-6,6H201v54.4c0,3.3-2.7,6-6,6h-21C170.7,225.6,168.1,223,168.1,219.7z"></path> <path class="st7" d="M386.9,203.5v16.1c0,3.4-2.7,6.1-6.1,6.1h-85.5c-3.4,0-6.1-2.7-6.1-6.1V85.4c0-3.3,2.7-6,6-6H316 c3.4,0,6.1,2.7,6.1,6.1v111.8h58.7C384.1,197.4,386.9,200.1,386.9,203.5z"></path> <path class="st8" d="M322.1,17l0,19.9c0,3.3,2.7,6,6,6h131.8l-30.1-30.1c-1.1-1.1-2.6-1.7-4.2-1.7L328,11 C324.8,11,322.1,13.7,322.1,17z"></path> <path class="st9" d="M455.3,151.4h-23.1c-2.5,0-4.5-2-4.5-4.5v-104h32.3v104C459.9,149.4,457.8,151.4,455.3,151.4z"></path> <g> <path class="st7" d="M25.5,262.9H31v35.4h-5.6V262.9z"></path> <path class="st7" d="M71.2,262.9v35.4h-4.8l-19.7-25.5v25.5h-5.6v-35.4h4.8l19.7,25.6v-25.6H71.2z"></path> <path class="st7" d="M113.4,262.9h4.8v35.4h-5.6v-25.8l-12.9,16.2l-12.9-16.2v25.8h-5.6v-35.4h4.8l13.7,17.2L113.4,262.9z"></path> <path class="st7" d="M130.7,267.7c3.6-3.5,8-5.3,13.3-5.3c5.3,0,9.7,1.8,13.3,5.3c3.6,3.5,5.4,7.8,5.4,12.9 c0,5.1-1.8,9.4-5.4,12.9s-8,5.3-13.3,5.3c-5.3,0-9.7-1.8-13.3-5.3c-3.6-3.5-5.4-7.8-5.4-12.9C125.3,275.6,127.1,271.2,130.7,267.7 z M134.7,290c2.5,2.6,5.7,3.8,9.3,3.8c3.7,0,6.8-1.3,9.3-3.8c2.5-2.6,3.8-5.7,3.8-9.3c0-3.7-1.3-6.8-3.8-9.3 c-2.5-2.5-5.7-3.8-9.3-3.8c-3.7,0-6.8,1.3-9.3,3.8c-2.5,2.5-3.8,5.6-3.8,9.3C130.9,284.3,132.1,287.4,134.7,290z"></path> <path class="st7" d="M170.8,298.3v-35.4h14.4c2.9,0,5.3,0.9,7.3,2.8c2,1.9,3,4.1,3,6.5c0,1.4-0.3,2.7-0.9,3.9 c-0.6,1.2-1.2,2-1.7,2.5l-0.9,0.7c0.1,0.1,0.3,0.2,0.6,0.3c0.2,0.2,0.7,0.5,1.3,1c0.6,0.5,1.2,1.1,1.6,1.7 c0.5,0.6,0.9,1.4,1.3,2.4c0.4,1,0.6,2,0.6,3.1c0,2.8-1.1,5.3-3.3,7.3c-2.2,2-4.9,3.1-8.1,3.1H170.8z M176.4,267.7v9.6h8.8 c1.4,0,2.5-0.5,3.4-1.4c0.9-0.9,1.4-2.1,1.4-3.4c0-1.4-0.5-2.5-1.4-3.4c-0.9-0.9-2.1-1.4-3.4-1.4H176.4z M186,293.5 c1.6,0,3-0.6,4.1-1.7c1.1-1.1,1.7-2.5,1.7-4.1c0-1.6-0.6-3-1.7-4.1c-1.1-1.1-2.5-1.7-4.2-1.7h-9.6v11.6H186z"></path> <path class="st7" d="M205.4,262.9h5.6v35.4h-5.6V262.9z"></path> <path class="st7" d="M221.1,298.3v-35.4h5.6v30.3h17.2v5.1H221.1z"></path> <path class="st7" d="M250.4,262.9h5.6v35.4h-5.6V262.9z"></path> <path class="st7" d="M276.7,262.9h5.6l14.7,35.4h-5.8l-3.8-9.4h-15.7l-3.8,9.4H262L276.7,262.9z M273.6,283.9h11.6l-5.8-14.7 L273.6,283.9z"></path> <path class="st7" d="M303,262.9h14.9c3.3,0,6,1,8.1,3.1c2.2,2.1,3.2,4.7,3.2,7.8c0,1.4-0.2,2.8-0.7,4.1c-0.5,1.3-1.1,2.3-1.8,3 c-0.7,0.7-1.4,1.4-2.1,1.9c-0.7,0.5-1.3,0.9-1.8,1.1l-0.7,0.3l8.1,14.1h-6.1l-7.6-13.7h-8.1v13.7H303V262.9z M322,269.7 c-1.1-1.1-2.5-1.7-4.1-1.7h-9.4v11.6h9.4c1.6,0,3-0.6,4.1-1.7c1.1-1.1,1.7-2.5,1.7-4.1C323.7,272.2,323.1,270.8,322,269.7z"></path> <path class="st7" d="M338.3,262.9h5.6v35.4h-5.6V262.9z"></path> <path class="st7" d="M364.6,262.9h5.6l14.7,35.4H379l-3.8-9.4h-15.7l-3.8,9.4H350L364.6,262.9z M361.6,283.9h11.6l-5.8-14.7 L361.6,283.9z"></path> </g> </g> </svg> 