<?xml version="1.0" encoding="UTF-8"?> <svg xmlns="http://www.w3.org/2000/svg" width="701" height="362" viewBox="0 0 701 362" fill="none"><path d="M586.38 0H588.316C597.314 1.27765 603.079 6.11722 605.609 14.5187C611.806 35.1353 596.14 50.5058 577.879 55.7712C577.22 55.9648 576.814 56.3971 576.659 57.0682C572.321 76.1555 567.396 92.5649 561.884 106.296C558.708 114.214 552.085 117.582 543.293 117.582C536.613 117.602 527.608 118.976 521.992 115.395C515.744 111.407 512.452 105.406 512.116 97.3915C512.078 96.7076 512.4 96.3656 513.085 96.3656C527.143 96.2107 542.267 100.973 547.012 83.1438C550.626 69.5414 554.357 55.9648 558.204 42.414C558.385 41.7945 558.785 41.4267 559.405 41.3106C565.176 40.2459 572.05 39.8974 576.775 37.2841C589.769 30.0828 585.973 14.0541 586.38 0Z" fill="#F3D03E"></path><path d="M476.719 31.6511C481.793 39.6654 491.378 39.8784 499.976 41.3303C500.699 41.4593 501.061 41.8852 501.061 42.6079V58.4623C501.061 59.4948 500.551 59.9723 499.531 59.8949C478.539 58.2688 451.08 46.1892 452.997 20.946C453.869 9.56331 460.027 1.04566 471.878 0.387482C472.189 0.369323 472.5 0.418289 472.79 0.530991C473.08 0.643692 473.342 0.817439 473.557 1.04021C473.772 1.26298 473.937 1.52945 474.038 1.82118C474.139 2.11292 474.175 2.42295 474.144 2.72983C473.311 11.5185 472.246 24.566 476.719 31.6511Z" fill="#C81C2E"></path><path d="M603.344 152.485C593.507 138.469 568.023 133.049 574.123 112.665C574.342 111.955 574.814 111.684 575.536 111.852C598.955 117.35 616.893 129.913 629.351 149.542C639.111 164.913 639.633 179.916 635.683 198.809C628.609 232.712 621.327 267.241 613.84 302.395C613.799 302.576 613.722 302.747 613.614 302.896C613.505 303.046 613.368 303.172 613.21 303.266C613.052 303.361 612.877 303.421 612.696 303.445C612.514 303.468 612.33 303.454 612.155 303.402C601.814 300.305 592.694 291.4 595.153 279.495C600.575 253.077 606.062 226.666 611.613 200.261C615.563 181.542 613.937 167.604 603.344 152.485Z" fill="#C81C2E"></path><path d="M466.669 153.996C458.226 169.734 461.847 184.64 464.81 201.269C464.926 201.978 464.629 202.372 463.919 202.449C457.567 203.224 451.719 201.991 446.375 198.752C445.819 198.416 445.445 197.945 445.251 197.339C432.703 159.416 455.379 123.719 493.45 115.86C494.134 115.718 494.573 115.989 494.767 116.673C496.897 124.3 494.883 129.236 488.318 133.979C480.34 139.748 471.219 145.536 466.669 153.996Z" fill="#C81C2E"></path><path d="M649.51 182.49C659.211 182.703 664.808 177.051 667.925 168.533C674.122 151.633 674.993 135.275 696.217 130.262C698.399 129.745 698.915 130.455 697.766 132.391C682.468 158.157 696.159 214.49 645.579 206.553C644.481 206.385 644.036 205.753 644.242 204.656L648.328 183.439C648.457 182.794 648.851 182.477 649.51 182.49Z" fill="#C81C2E"></path><path d="M39.6974 273.919H33.888C32.9198 273.919 32.4357 273.435 32.4357 272.467V259.885C32.4357 258.917 32.9198 258.433 33.888 258.433H54.705C55.6733 258.433 56.1574 258.917 56.1574 259.885V298.001C56.1574 298.621 55.8992 299.104 55.3828 299.453C35.8439 312.384 12.0641 303.847 6.46772 280.656C2.28495 263.388 4.86045 233.383 25.6 226.859C36.2764 223.504 45.978 225.724 54.705 233.519C55.2602 234.022 55.3118 234.57 54.86 235.164L46.3201 246.198C45.9587 246.663 45.5778 246.676 45.1776 246.237C37.3156 237.584 27.0911 241.668 23.6054 251.851C20.4296 261.124 20.1779 297.033 40.0266 288.303C40.7754 287.98 41.1498 287.406 41.1498 286.58V275.371C41.1498 274.403 40.6657 273.919 39.6974 273.919Z" fill="#003054"></path><path d="M173.372 253.4C183.016 259.556 196.997 264.705 196.978 280.192C196.939 305.861 169.945 312.714 153.001 297.324C152.458 296.833 152.394 296.285 152.807 295.678L160.34 284.702C160.753 284.121 161.205 284.089 161.695 284.605C173.585 297.266 190.471 283.115 173.798 273.436C164.484 268.035 157.551 264.937 155.77 254.697C153.291 240.391 160.437 227.537 175.212 225.853C181.931 225.098 192.834 226.163 197.171 232.396C197.559 232.951 197.565 233.506 197.191 234.061L189.968 244.534C189.503 245.218 188.974 245.269 188.38 244.689C181.602 237.913 168.512 239.907 172.21 251.87C172.404 252.516 172.791 253.025 173.372 253.4Z" fill="#003054"></path><path d="M105.809 287.954H125.677C125.874 287.954 126.063 288.031 126.204 288.168C126.345 288.306 126.427 288.493 126.432 288.69L126.955 302.667C126.958 302.766 126.941 302.864 126.905 302.957C126.869 303.05 126.816 303.134 126.748 303.206C126.679 303.278 126.597 303.336 126.507 303.376C126.416 303.416 126.318 303.438 126.219 303.441H89.349C89.1487 303.441 88.9566 303.361 88.8149 303.22C88.6733 303.078 88.5938 302.886 88.5938 302.686V227.731C88.5938 227.53 88.6733 227.338 88.8149 227.197C88.9566 227.055 89.1487 226.976 89.349 226.976H124.631C124.832 226.976 125.024 227.055 125.165 227.197C125.307 227.338 125.387 227.53 125.387 227.731V241.707C125.387 241.907 125.307 242.1 125.165 242.241C125.024 242.383 124.832 242.462 124.631 242.462H105.809C105.609 242.462 105.417 242.542 105.275 242.683C105.133 242.825 105.054 243.017 105.054 243.217V256.71C105.054 256.91 105.133 257.102 105.275 257.244C105.417 257.385 105.609 257.465 105.809 257.465H122.947C123.147 257.465 123.339 257.544 123.481 257.686C123.622 257.828 123.702 258.02 123.702 258.22L123.682 270.745C123.682 270.945 123.603 271.137 123.461 271.279C123.32 271.42 123.128 271.5 122.927 271.5H105.809C105.609 271.5 105.417 271.579 105.275 271.721C105.133 271.862 105.054 272.054 105.054 272.255V287.199C105.054 287.399 105.133 287.591 105.275 287.733C105.417 287.875 105.609 287.954 105.809 287.954Z" fill="#003054"></path><path d="M245.312 276.843L245.506 301.951C245.519 302.945 245.028 303.442 244.034 303.442H229.472C228.504 303.442 228.02 302.958 228.02 301.99V228.37C228.02 227.544 228.433 227.118 229.259 227.092C248.74 226.473 274.708 223.027 275.327 251.387C275.547 261.234 271.145 268.648 262.121 273.63C257.318 276.282 251.761 275.72 246.222 275.914C245.616 275.927 245.312 276.237 245.312 276.843ZM245.409 241.437L245.332 261.299C245.332 261.365 245.345 261.43 245.37 261.491C245.395 261.552 245.432 261.608 245.479 261.654C245.526 261.701 245.581 261.738 245.642 261.764C245.703 261.789 245.769 261.802 245.835 261.802L249.998 261.821C251.177 261.826 252.346 261.594 253.437 261.137C254.528 260.68 255.52 260.008 256.356 259.16C257.192 258.311 257.857 257.302 258.311 256.191C258.765 255.08 259 253.888 259.003 252.684V250.129C259.008 247.704 258.071 245.375 256.398 243.655C254.724 241.935 252.451 240.963 250.076 240.953L245.912 240.934C245.779 240.934 245.651 240.987 245.556 241.081C245.462 241.175 245.409 241.303 245.409 241.437Z" fill="#003054"></path><path d="M314.094 290.548L311.422 302.783C311.382 302.969 311.28 303.136 311.132 303.255C310.984 303.375 310.799 303.441 310.609 303.441H295.059C294.933 303.441 294.808 303.413 294.694 303.359C294.581 303.304 294.481 303.224 294.403 303.125C294.324 303.027 294.27 302.911 294.242 302.788C294.215 302.665 294.216 302.537 294.245 302.415L312.255 227.614C312.298 227.432 312.402 227.269 312.55 227.153C312.698 227.037 312.88 226.975 313.068 226.976H333.168C333.356 226.975 333.539 227.037 333.686 227.153C333.834 227.269 333.938 227.432 333.982 227.614L351.952 302.415C351.981 302.537 351.983 302.665 351.955 302.788C351.928 302.911 351.873 303.027 351.795 303.125C351.717 303.224 351.617 303.304 351.503 303.359C351.389 303.413 351.265 303.441 351.139 303.441H334.853C334.665 303.442 334.483 303.379 334.335 303.263C334.188 303.147 334.083 302.985 334.04 302.802L331.135 290.529C331.091 290.346 330.987 290.184 330.84 290.068C330.692 289.952 330.51 289.889 330.322 289.89H314.908C314.717 289.89 314.533 289.956 314.385 290.075C314.237 290.195 314.134 290.362 314.094 290.548ZM316.224 275.604C316.207 275.69 316.209 275.779 316.231 275.864C316.252 275.95 316.292 276.029 316.347 276.098C316.402 276.166 316.472 276.221 316.551 276.26C316.631 276.298 316.717 276.319 316.805 276.32L328.463 276.339C328.551 276.338 328.637 276.318 328.717 276.279C328.796 276.241 328.866 276.185 328.921 276.117C328.977 276.049 329.016 275.969 329.037 275.884C329.059 275.798 329.061 275.709 329.044 275.623L323.273 245.385C323.248 245.247 323.175 245.122 323.067 245.032C322.959 244.942 322.823 244.893 322.682 244.893C322.542 244.893 322.406 244.942 322.298 245.032C322.19 245.122 322.117 245.247 322.092 245.385L316.224 275.604Z" fill="#003054"></path><path d="M416.263 272.739L415.682 228.04C415.682 227.33 416.037 226.976 416.747 226.976H429.411C430.379 226.976 430.864 227.46 430.864 228.427V301.989C430.864 302.957 430.379 303.441 429.411 303.441H413.668C412.919 303.441 412.416 303.092 412.157 302.395L395.271 258.065C395.234 257.987 395.171 257.924 395.093 257.886C395.016 257.848 394.927 257.837 394.843 257.854C394.758 257.872 394.682 257.918 394.626 257.984C394.57 258.05 394.538 258.133 394.535 258.22L395.194 302.395C395.207 303.092 394.858 303.441 394.148 303.441H381.619C380.419 303.441 379.818 302.841 379.818 301.641L380.051 227.944C380.051 227.298 380.367 226.976 381 226.976H397.13C397.969 226.976 398.531 227.369 398.815 228.156L415.469 272.893C415.498 272.99 415.562 273.071 415.648 273.123C415.734 273.175 415.837 273.193 415.935 273.174C416.034 273.154 416.122 273.099 416.183 273.019C416.243 272.939 416.272 272.839 416.263 272.739Z" fill="#003054"></path><path d="M481.365 226.976H466.067C465.618 226.976 465.254 227.34 465.254 227.789V302.628C465.254 303.077 465.618 303.441 466.067 303.441H481.365C481.814 303.441 482.179 303.077 482.179 302.628V227.789C482.179 227.34 481.814 226.976 481.365 226.976Z" fill="#003054"></path><path d="M530.398 290.645L527.61 302.686C527.561 302.901 527.441 303.093 527.268 303.23C527.096 303.368 526.882 303.442 526.661 303.441H511.479C511.331 303.442 511.185 303.41 511.052 303.346C510.919 303.282 510.802 303.189 510.711 303.073C510.619 302.957 510.555 302.822 510.524 302.678C510.493 302.533 510.495 302.384 510.53 302.241L528.578 227.731C528.63 227.522 528.749 227.337 528.917 227.204C529.085 227.071 529.293 226.997 529.508 226.995L549.337 226.976C549.552 226.978 549.759 227.051 549.928 227.185C550.096 227.318 550.215 227.503 550.267 227.711L568.276 302.241C568.311 302.384 568.313 302.533 568.282 302.678C568.251 302.822 568.187 302.957 568.095 303.073C568.004 303.189 567.887 303.282 567.754 303.346C567.62 303.41 567.474 303.442 567.327 303.441H551.08C550.854 303.44 550.635 303.36 550.462 303.215C550.289 303.07 550.172 302.869 550.131 302.647L548.02 290.684C547.98 290.462 547.862 290.261 547.689 290.116C547.516 289.971 547.297 289.891 547.071 289.89H531.347C531.127 289.889 530.912 289.963 530.74 290.101C530.567 290.238 530.447 290.43 530.398 290.645ZM532.916 275.7C532.902 275.785 532.906 275.872 532.929 275.955C532.952 276.038 532.992 276.115 533.047 276.181C533.102 276.248 533.171 276.301 533.248 276.338C533.326 276.376 533.411 276.396 533.497 276.397L544.767 276.3C544.855 276.299 544.942 276.279 545.021 276.24C545.1 276.202 545.17 276.147 545.225 276.078C545.281 276.01 545.32 275.93 545.342 275.845C545.363 275.76 545.365 275.671 545.348 275.584L539.461 245.076C539.434 244.938 539.359 244.814 539.249 244.725C539.14 244.637 539.003 244.59 538.862 244.592C538.722 244.594 538.586 244.646 538.48 244.738C538.373 244.83 538.303 244.956 538.28 245.095L532.916 275.7Z" fill="#003054"></path></svg> 