<?xml version="1.0" encoding="utf-8"?>
<!-- Generator: Adobe Illustrator 24.1.1, SVG Export Plug-In . SVG Version: 6.00 Build 0)  -->
<svg version="1.1" id="Capa_1" xmlns="http://www.w3.org/2000/svg" xmlns:xlink="http://www.w3.org/1999/xlink" x="0px" y="0px"
	 viewBox="0 0 433 113" style="enable-background:new 0 0 433 113;" xml:space="preserve">
<style type="text/css">
	.st0{fill:#0A2240;}
</style>
<g>
	<g>
		<path class="st0" d="M66.72,46.91c2.16-1.33,3.24-3.5,3.24-6.49c0-1.66-0.36-3.03-1.08-4.1c-0.72-1.07-1.68-1.9-2.88-2.5
			c-1.2-0.6-2.58-1.01-4.13-1.25c-1.56-0.23-3.18-0.35-4.85-0.35H39.39v16.68h19.05C61.81,48.91,64.56,48.25,66.72,46.91z"/>
		<path class="st0" d="M69.72,61.95c-2.48-1.56-5.75-2.35-9.83-2.35h-20.5v19.57h20.13c1.84,0,3.6-0.15,5.27-0.45
			c1.68-0.3,3.16-0.8,4.44-1.5c1.27-0.7,2.3-1.65,3.05-2.85c0.76-1.2,1.14-2.73,1.14-4.6C73.43,66.13,72.19,63.51,69.72,61.95z"/>
		<path class="st0" d="M20.58,91.36V38.58H0.67v62.75c0,4.93,3.99,8.92,8.92,8.92h62.75V90.34c-3.35,0.67-6.78,1.02-10.29,1.02
			H20.58z"/>
		<path class="st0" d="M108.18,11.67c0-4.92-3.99-8.92-8.92-8.92H36.51v17.3h24.34c4.07,0,7.79,0.3,11.14,0.9
			c3.36,0.6,6.23,1.58,8.63,2.95c2.4,1.36,4.25,3.18,5.57,5.44c1.32,2.26,1.98,5.06,1.98,8.39c0,3.59-0.98,6.59-2.93,8.99
			c-1.96,2.4-4.86,4.36-8.69,5.9c5.27,1.26,9.21,3.48,11.81,6.64c2.6,3.16,3.89,6.98,3.89,11.44c0,1.31-0.11,2.55-0.34,3.73h16.26
			V11.67z"/>
	</g>
	<g>
		<path class="st0" d="M170.88,55.77c1.28,1.67,1.92,3.73,1.92,6.17c0,3.46-1.34,6.11-4.03,7.97c-2.69,1.86-6.6,2.79-11.75,2.79
			h-20.4V33.26h19.27c4.81,0,8.5,0.92,11.07,2.76c2.57,1.84,3.86,4.34,3.86,7.49c0,1.92-0.46,3.63-1.38,5.13
			c-0.92,1.5-2.21,2.69-3.86,3.55C167.84,52.9,169.61,54.1,170.88,55.77z M145.7,40.13v9.3h9.07c2.25,0,3.96-0.39,5.13-1.18
			c1.16-0.79,1.75-1.95,1.75-3.49c0-1.54-0.58-2.7-1.75-3.46c-1.17-0.77-2.87-1.16-5.13-1.16H145.7z M161.78,64.64
			c1.22-0.79,1.83-2.01,1.83-3.66c0-3.27-2.42-4.9-7.27-4.9H145.7v9.75h10.65C158.75,65.82,160.56,65.43,161.78,64.64z"/>
		<path class="st0" d="M185.7,70.73c-3.29-1.77-5.86-4.2-7.72-7.3c-1.86-3.1-2.79-6.58-2.79-10.45s0.93-7.35,2.79-10.45
			c1.86-3.1,4.43-5.53,7.72-7.3c3.29-1.76,6.98-2.65,11.07-2.65c4.09,0,7.78,0.88,11.04,2.65c3.27,1.77,5.84,4.2,7.72,7.3
			c1.88,3.1,2.82,6.58,2.82,10.45s-0.94,7.35-2.82,10.45c-1.88,3.1-4.45,5.53-7.72,7.3c-3.27,1.77-6.95,2.65-11.04,2.65
			C192.67,73.37,188.98,72.49,185.7,70.73z M203.08,63.99c1.88-1.07,3.35-2.56,4.42-4.48c1.07-1.92,1.61-4.09,1.61-6.54
			c0-2.44-0.54-4.62-1.61-6.54c-1.07-1.92-2.55-3.41-4.42-4.48c-1.88-1.07-3.98-1.61-6.31-1.61c-2.33,0-4.43,0.54-6.31,1.61
			c-1.88,1.07-3.35,2.56-4.42,4.48c-1.07,1.92-1.61,4.1-1.61,6.54c0,2.44,0.54,4.62,1.61,6.54c1.07,1.92,2.54,3.41,4.42,4.48
			c1.88,1.07,3.98,1.61,6.31,1.61C199.1,65.6,201.2,65.06,203.08,63.99z"/>
		<path class="st0" d="M252.71,65.37v7.33h-30.54V33.26h29.81v7.33h-20.73v8.56h18.31v7.1h-18.31v9.13H252.71z"/>
		<path class="st0" d="M268.11,40.69h-12.62v-7.44h34.37v7.44h-12.62v32h-9.13V40.69z"/>
		<path class="st0" d="M299.43,72.11c-2.91-0.84-5.25-1.94-7.02-3.3l3.1-6.87c1.69,1.24,3.7,2.24,6.03,2.99
			c2.33,0.75,4.66,1.13,6.99,1.13c2.59,0,4.51-0.38,5.75-1.16c1.24-0.77,1.86-1.79,1.86-3.07c0-0.94-0.37-1.72-1.1-2.34
			c-0.73-0.62-1.67-1.12-2.82-1.49c-1.15-0.37-2.7-0.79-4.65-1.24c-3.01-0.71-5.47-1.43-7.38-2.14c-1.92-0.71-3.56-1.86-4.93-3.44
			c-1.37-1.58-2.06-3.68-2.06-6.31c0-2.29,0.62-4.37,1.86-6.23c1.24-1.86,3.11-3.33,5.61-4.42c2.5-1.09,5.55-1.63,9.16-1.63
			c2.52,0,4.98,0.3,7.38,0.9c2.4,0.6,4.51,1.47,6.31,2.59L320.69,43c-3.64-2.06-7.29-3.1-10.93-3.1c-2.55,0-4.44,0.41-5.66,1.24
			c-1.22,0.83-1.83,1.91-1.83,3.27c0,1.35,0.7,2.36,2.11,3.01c1.41,0.66,3.56,1.31,6.45,1.94c3,0.71,5.47,1.43,7.38,2.14
			c1.91,0.71,3.56,1.84,4.93,3.38c1.37,1.54,2.06,3.63,2.06,6.26c0,2.25-0.63,4.31-1.89,6.17c-1.26,1.86-3.15,3.33-5.66,4.42
			c-2.52,1.09-5.58,1.63-9.18,1.63C305.35,73.37,302.34,72.95,299.43,72.11z"/>
		<path class="st0" d="M339.43,70.75c-3.25-1.75-5.8-4.17-7.66-7.27c-1.86-3.1-2.79-6.6-2.79-10.51s0.93-7.41,2.79-10.51
			c1.86-3.1,4.41-5.52,7.66-7.27c3.25-1.75,6.9-2.62,10.96-2.62c3.42,0,6.51,0.6,9.27,1.8c2.76,1.2,5.08,2.93,6.96,5.18l-5.86,5.41
			c-2.67-3.08-5.97-4.62-9.92-4.62c-2.44,0-4.62,0.54-6.54,1.61c-1.92,1.07-3.41,2.56-4.48,4.48c-1.07,1.92-1.61,4.1-1.61,6.54
			c0,2.44,0.54,4.62,1.61,6.54c1.07,1.92,2.56,3.41,4.48,4.48c1.92,1.07,4.09,1.61,6.54,1.61c3.94,0,7.25-1.56,9.92-4.68l5.86,5.41
			c-1.88,2.29-4.21,4.04-6.99,5.24c-2.78,1.2-5.88,1.8-9.3,1.8C346.31,73.37,342.68,72.5,339.43,70.75z"/>
		<path class="st0" d="M408.58,33.26V72.7h-9.13V56.53h-17.92V72.7h-9.13V33.26h9.13v15.55h17.92V33.26H408.58z"/>
	</g>
	<g>
		<g>
			<path class="st0" d="M428.91,34.67c1.06,0.61,1.9,1.44,2.51,2.51c0.61,1.06,0.91,2.24,0.91,3.54c0,1.3-0.31,2.48-0.93,3.56
				c-0.62,1.08-1.47,1.93-2.54,2.55c-1.07,0.62-2.25,0.93-3.55,0.93c-1.3,0-2.48-0.31-3.54-0.93c-1.06-0.62-1.9-1.47-2.52-2.54
				c-0.61-1.07-0.92-2.25-0.92-3.53s0.31-2.46,0.92-3.53c0.61-1.07,1.46-1.92,2.53-2.54c1.07-0.62,2.26-0.93,3.57-0.93
				S427.85,34.06,428.91,34.67z M428.3,45.87c0.89-0.53,1.6-1.25,2.11-2.15c0.52-0.91,0.77-1.91,0.77-3c0-1.1-0.25-2.09-0.75-2.98
				c-0.5-0.89-1.2-1.6-2.08-2.11c-0.89-0.52-1.88-0.77-2.99-0.77s-2.12,0.26-3.01,0.78c-0.9,0.52-1.6,1.23-2.11,2.13
				c-0.51,0.9-0.76,1.9-0.76,2.99s0.25,2.1,0.76,2.99c0.51,0.9,1.21,1.61,2.1,2.13c0.89,0.52,1.89,0.78,2.98,0.78
				C426.41,46.67,427.4,46.4,428.3,45.87z M428.53,41.06c-0.27,0.41-0.66,0.72-1.16,0.93l1.74,2.68h-1.71l-1.55-2.38h-0.22h-1.55
				v2.38h-1.71v-7.81h3.25c1.02,0,1.82,0.24,2.41,0.73c0.59,0.49,0.88,1.15,0.88,1.98C428.94,40.15,428.8,40.65,428.53,41.06z
				 M425.55,40.96c0.56,0,0.98-0.12,1.29-0.37c0.3-0.24,0.46-0.58,0.46-1.02s-0.15-0.77-0.46-1.01c-0.3-0.24-0.73-0.36-1.29-0.36
				h-1.47v2.76H425.55z"/>
		</g>
	</g>
</g>
</svg>
