<svg xmlns="http://www.w3.org/2000/svg" width="160" height="37" viewBox="0 0 160 37">
    <g fill="none" fill-rule="evenodd">
        <path fill="#FFF" d="M8.13 23.466c.214 2.653 2.283 5.102 6.42 5.102 3.137 0 4.636-1.565 4.636-3.333 0-1.497-1.07-2.72-3.781-3.265l-4.635-1.02C3.994 19.522.927 15.644.927 10.95.927 4.965 6.49 0 14.05 0c9.986 0 13.337 6.053 13.765 9.659l-7.916 1.7c-.286-1.973-1.783-4.489-5.777-4.489-2.497 0-4.493 1.428-4.493 3.332 0 1.633 1.283 2.654 3.21 2.994l4.992 1.02c6.917 1.36 10.412 5.373 10.412 10.27 0 5.442-4.421 11.02-13.622 11.02C4.065 35.506.428 28.976 0 25.167l8.13-1.701zM74.745 13.944c-.143-3.334-2.425-6.598-7.846-6.598-4.92 0-7.63 3.537-7.845 6.598h15.69zm8.843 10.95c-1.783 5.783-7.346 10.612-15.976 10.612-9.628 0-18.116-6.599-18.116-17.89C49.496 6.939 57.77 0 66.756 0c10.841 0 17.332 6.598 17.332 17.345 0 1.292-.143 2.652-.143 2.789H58.84c.214 4.42 4.136 7.618 8.844 7.618 4.422 0 6.847-2.11 7.988-5.102l7.916 2.245zM99.209 34.486h-9.485V1.02h9.2v4.148C101.064 1.7 105.272.136 109.05.136c8.702 0 12.695 5.918 12.695 13.264v21.086h-9.485V14.964c0-3.74-1.926-6.666-6.49-6.666-4.137 0-6.562 3.061-6.562 6.938v19.25zM149.137 20.95v-1.497l-7.917 1.157c-2.425.34-4.35 1.632-4.35 4.217 0 1.972 1.497 3.877 4.564 3.877 3.994 0 7.703-1.836 7.703-7.754m-11.27-5.714l8.63-1.224c1.998-.272 2.64-1.225 2.64-2.38 0-2.381-1.926-4.354-5.92-4.354-4.137 0-6.419 2.517-6.704 5.442l-8.416-1.7C128.667 5.781 133.731 0 143.146 0c11.125 0 15.262 5.986 15.262 12.72v16.46c0 1.768.214 4.149.428 5.306h-8.7c-.215-.884-.357-2.722-.357-4.014-1.783 2.653-5.135 4.966-10.342 4.966-7.489 0-12.053-4.83-12.053-10.067 0-5.986 4.636-9.319 10.484-10.135M34.496 13.368v21.1h9.272V13.355c-1.358.772-2.948 1.228-4.671 1.228-1.677 0-3.248-.45-4.6-1.215" transform="translate(.164 .23)"/>
        <path fill="#E10600" d="M39.097.12c-3.137 0-5.716 2.46-5.716 5.518 0 1.44.626 2.763 1.633 3.74 1.04 1.009 2.489 1.646 4.083 1.646 1.63 0 3.077-.637 4.108-1.646.999-.977 1.608-2.3 1.608-3.74 0-3.057-2.51-5.517-5.716-5.517" transform="translate(.164 .23)"/>
    </g>
</svg>
