<svg xmlns="http://www.w3.org/2000/svg" viewBox="0 0 1180 260" role="img" aria-labelledby="title desc">
  <title id="title">MAX SERVICES SPA</title>
  <desc id="desc">Logo horizontal de MAX SERVICES SPA con isotipo rojo y azul, nombre en azul y trazo inferior.</desc>
  <defs>
    <linearGradient id="blue-grad" x1="0" y1="0" x2="1" y2="1">
      <stop offset="0%" stop-color="#1ab4ff" />
      <stop offset="100%" stop-color="#0b74b7" />
    </linearGradient>
    <linearGradient id="red-grad" x1="0" y1="0" x2="1" y2="1">
      <stop offset="0%" stop-color="#ff4a4d" />
      <stop offset="100%" stop-color="#d73b3e" />
    </linearGradient>
  </defs>

  <g fill="none" stroke-linecap="round">
    <path d="M48 112 C118 28 248 22 340 92" stroke="url(#blue-grad)" stroke-width="22"/>
    <path d="M86 128 C142 68 236 68 300 118" stroke="url(#blue-grad)" stroke-width="22"/>
    <path d="M126 144 C170 108 226 108 264 138" stroke="url(#blue-grad)" stroke-width="22"/>
    <path d="M86 144 C122 214 192 248 294 228" stroke="url(#red-grad)" stroke-width="24"/>
    <path d="M120 128 C152 188 208 216 286 204" stroke="url(#red-grad)" stroke-width="24"/>
    <path d="M160 114 C186 156 226 176 276 170" stroke="url(#red-grad)" stroke-width="24"/>
  </g>

  <g fill="url(#blue-grad)" font-family="Arial, Helvetica, sans-serif" font-weight="700">
    <text x="382" y="130" font-size="104" letter-spacing="-2">MAX SERVICES SPA</text>
  </g>

  <path d="M398 178 C590 160 842 156 1120 196" fill="none" stroke="url(#blue-grad)" stroke-linecap="round" stroke-width="12"/>
</svg>
